REM DIRINDEX 1\2\4\18,1\2\4\19,1\2\5\20,1\2\5\21,1\2\6\22,1\2\7\23,1\2\8\24,1\2\8\25,1\2\9\26,1\2\10\27,1\3\11\28,1\3\11\29,1\3\11\30,1\3\11\31,1\3\12\32,1\3\12\33,1\3\12\34,1\3\12\35,1\3\13\36,1\3\13\37,1\3\14\38,1\3\14\39,1\3\15\40,1\3\15\41,1\3\15\42,1\3\16\43,1\3\16\44,1\3\17\45,1\3\17\46
REM DIRNAME cjc023,folder01,folder02,folder03,folder04,folder05,folder06,folder07,folder08,folder09,folder10,folder11,folder12,folder13,folder14,folder15,folder16,folder17,folder18,folder19,folder20,folder21,folder22,folder23,folder24,folder25,folder26,folder27,folder28,folder29,folder30,folder31,folder32,folder33,folder34,folder35,folder36,folder37,folder38,folder39,folder40,folder41,folder42,folder43,folder44,folder45
TITLE ""
FILE "02.mp3" MP3
  TRACK 01 AUDIO
    TITLE "0:"
    INDEX 01 00:00:00
  TRACK 02 AUDIO
    TITLE "18:cjc023_0201"
    INDEX 01 00:00:13
  TRACK 03 AUDIO
    TITLE "0:"
    INDEX 01 00:01:22
  TRACK 04 AUDIO
    TITLE "19:cjc023_0202"
    INDEX 01 00:01:44
  TRACK 05 AUDIO
    TITLE "0:"
    INDEX 01 00:03:12
  TRACK 06 AUDIO
    TITLE "18:cjc023_0203"
    INDEX 01 00:04:11
  TRACK 07 AUDIO
    TITLE "0:"
    INDEX 01 00:05:20
  TRACK 08 AUDIO
    TITLE "19:cjc023_0204"
    INDEX 01 00:05:44
  TRACK 09 AUDIO
    TITLE "0:"
    INDEX 01 00:07:39
  TRACK 10 AUDIO
    TITLE "18:cjc023_0205"
    INDEX 01 00:08:34
  TRACK 11 AUDIO
    TITLE "0:"
    INDEX 01 00:09:38
  TRACK 12 AUDIO
    TITLE "19:cjc023_0206"
    INDEX 01 00:09:61
  TRACK 13 AUDIO
    TITLE "0:"
    INDEX 01 00:11:25
  TRACK 14 AUDIO
    TITLE "18:cjc023_0207"
    INDEX 01 00:12:24
  TRACK 15 AUDIO
    TITLE "0:"
    INDEX 01 00:13:61
  TRACK 16 AUDIO
    TITLE "19:cjc023_0208"
    INDEX 01 00:14:11
  TRACK 17 AUDIO
    TITLE "0:"
    INDEX 01 00:17:25
  TRACK 18 AUDIO
    TITLE "18:cjc023_0209"
    INDEX 01 00:18:23
  TRACK 19 AUDIO
    TITLE "0:"
    INDEX 01 00:19:40
  TRACK 20 AUDIO
    TITLE "19:cjc023_0210"
    INDEX 01 00:19:63
  TRACK 21 AUDIO
    TITLE "0:"
    INDEX 01 00:21:74
  TRACK 22 AUDIO
    TITLE "18:cjc023_0211"
    INDEX 01 00:22:70
  TRACK 23 AUDIO
    TITLE "0:"
    INDEX 01 00:23:71
  TRACK 24 AUDIO
    TITLE "19:cjc023_0212"
    INDEX 01 00:24:18
  TRACK 25 AUDIO
    TITLE "0:"
    INDEX 01 00:26:01
  TRACK 26 AUDIO
    TITLE "18:cjc023_0213"
    INDEX 01 00:27:00
  TRACK 27 AUDIO
    TITLE "0:"
    INDEX 01 00:28:08
  TRACK 28 AUDIO
    TITLE "19:cjc023_0214"
    INDEX 01 00:28:31
  TRACK 29 AUDIO
    TITLE "0:"
    INDEX 01 00:29:66
  TRACK 30 AUDIO
    TITLE "18:cjc023_0215"
    INDEX 01 00:30:63
  TRACK 31 AUDIO
    TITLE "0:"
    INDEX 01 00:32:07
  TRACK 32 AUDIO
    TITLE "19:cjc023_0216"
    INDEX 01 00:32:29
  TRACK 33 AUDIO
    TITLE "0:"
    INDEX 01 00:34:20
  TRACK 34 AUDIO
    TITLE "18:cjc023_0217"
    INDEX 01 00:35:17
  TRACK 35 AUDIO
    TITLE "0:"
    INDEX 01 00:36:25
  TRACK 36 AUDIO
    TITLE "19:cjc023_0218"
    INDEX 01 00:36:48
  TRACK 37 AUDIO
    TITLE "0:"
    INDEX 01 00:38:41
  TRACK 38 AUDIO
    TITLE "18:cjc023_0219"
    INDEX 01 00:39:39
  TRACK 39 AUDIO
    TITLE "0:"
    INDEX 01 00:40:62
  TRACK 40 AUDIO
    TITLE "19:cjc023_0220"
    INDEX 01 00:41:10
  TRACK 41 AUDIO
    TITLE "0:"
    INDEX 01 00:42:55
  TRACK 42 AUDIO
    TITLE "18:cjc023_0221"
    INDEX 01 00:43:50
  TRACK 43 AUDIO
    TITLE "0:"
    INDEX 01 00:44:56
  TRACK 44 AUDIO
    TITLE "19:cjc023_0222"
    INDEX 01 00:45:08
  TRACK 45 AUDIO
    TITLE "0:"
    INDEX 01 00:46:58
  TRACK 46 AUDIO
    TITLE "18:cjc023_0223"
    INDEX 01 00:47:52
  TRACK 47 AUDIO
    TITLE "0:"
    INDEX 01 00:49:16
  TRACK 48 AUDIO
    TITLE "19:cjc023_0224"
    INDEX 01 00:49:45
  TRACK 49 AUDIO
    TITLE "0:"
    INDEX 01 00:51:40
  TRACK 50 AUDIO
    TITLE "18:cjc023_0225"
    INDEX 01 00:52:37
  TRACK 51 AUDIO
    TITLE "0:"
    INDEX 01 00:53:51
  TRACK 52 AUDIO
    TITLE "19:cjc023_0226"
    INDEX 01 00:53:72
  TRACK 53 AUDIO
    TITLE "0:"
    INDEX 01 00:55:71
  TRACK 54 AUDIO
    TITLE "18:cjc023_0227"
    INDEX 01 00:56:69
  TRACK 55 AUDIO
    TITLE "0:"
    INDEX 01 00:57:74
  TRACK 56 AUDIO
    TITLE "19:cjc023_0228"
    INDEX 01 00:58:20
  TRACK 57 AUDIO
    TITLE "0:"
    INDEX 01 01:00:02
  TRACK 58 AUDIO
    TITLE "18:cjc023_0229"
    INDEX 01 01:01:01
  TRACK 59 AUDIO
    TITLE "0:"
    INDEX 01 01:02:14
  TRACK 60 AUDIO
    TITLE "19:cjc023_0230"
    INDEX 01 01:02:36
  TRACK 61 AUDIO
    TITLE "0:"
    INDEX 01 01:04:19
  TRACK 62 AUDIO
    TITLE "18:cjc023_0231"
    INDEX 01 01:05:15
  TRACK 63 AUDIO
    TITLE "0:"
    INDEX 01 01:06:57
  TRACK 64 AUDIO
    TITLE "19:cjc023_0232"
    INDEX 01 01:07:04
  TRACK 65 AUDIO
    TITLE "0:"
    INDEX 01 01:09:28
  TRACK 66 AUDIO
    TITLE "18:cjc023_0233"
    INDEX 01 01:10:24
  TRACK 67 AUDIO
    TITLE "0:"
    INDEX 01 01:11:41
  TRACK 68 AUDIO
    TITLE "19:cjc023_0234"
    INDEX 01 01:11:62
  TRACK 69 AUDIO
    TITLE "0:"
    INDEX 01 01:13:63
  TRACK 70 AUDIO
    TITLE "18:cjc023_0235"
    INDEX 01 01:14:61
  TRACK 71 AUDIO
    TITLE "0:"
    INDEX 01 01:15:62
  TRACK 72 AUDIO
    TITLE "19:cjc023_0236"
    INDEX 01 01:16:09
  TRACK 73 AUDIO
    TITLE "0:"
    INDEX 01 01:18:29
  TRACK 74 AUDIO
    TITLE "18:cjc023_0237"
    INDEX 01 01:19:25
  TRACK 75 AUDIO
    TITLE "0:"
    INDEX 01 01:20:32
  TRACK 76 AUDIO
    TITLE "19:cjc023_0238"
    INDEX 01 01:20:53
  TRACK 77 AUDIO
    TITLE "0:"
    INDEX 01 01:22:44
  TRACK 78 AUDIO
    TITLE "18:cjc023_0239"
    INDEX 01 01:23:42
  TRACK 79 AUDIO
    TITLE "0:"
    INDEX 01 01:24:57
  TRACK 80 AUDIO
    TITLE "19:cjc023_0240"
    INDEX 01 01:25:04
  TRACK 81 AUDIO
    TITLE "0:"
    INDEX 01 01:27:10
  TRACK 82 AUDIO
    TITLE "18:cjc023_0241"
    INDEX 01 01:28:08
  TRACK 83 AUDIO
    TITLE "0:"
    INDEX 01 01:29:37
  TRACK 84 AUDIO
    TITLE "19:cjc023_0242"
    INDEX 01 01:29:56
  TRACK 85 AUDIO
    TITLE "0:"
    INDEX 01 01:32:02
  TRACK 86 AUDIO
    TITLE "18:cjc023_0243"
    INDEX 01 01:33:05
  TRACK 87 AUDIO
    TITLE "0:"
    INDEX 01 01:34:20
  TRACK 88 AUDIO
    TITLE "19:cjc023_0244"
    INDEX 01 01:34:44
  TRACK 89 AUDIO
    TITLE "0:"
    INDEX 01 01:36:35
  TRACK 90 AUDIO
    TITLE "18:cjc023_0245"
    INDEX 01 01:37:32
  TRACK 91 AUDIO
    TITLE "0:"
    INDEX 01 01:38:43
  TRACK 92 AUDIO
    TITLE "19:cjc023_0246"
    INDEX 01 01:38:67
  TRACK 93 AUDIO
    TITLE "0:"
    INDEX 01 01:40:66
  TRACK 94 AUDIO
    TITLE "18:cjc023_0247"
    INDEX 01 01:41:63
  TRACK 95 AUDIO
    TITLE "0:"
    INDEX 01 01:42:73
  TRACK 96 AUDIO
    TITLE "19:cjc023_0248"
    INDEX 01 01:43:23
  TRACK 97 AUDIO
    TITLE "0:"
    INDEX 01 01:45:69
  TRACK 98 AUDIO
    TITLE "18:cjc023_0249"
    INDEX 01 01:46:66
  TRACK 99 AUDIO
    TITLE "0:"
    INDEX 01 01:47:72
  TRACK 100 AUDIO
    TITLE "19:cjc023_0250"
    INDEX 01 01:48:18
  TRACK 101 AUDIO
    TITLE "0:"
    INDEX 01 01:50:41
  TRACK 102 AUDIO
    TITLE "18:cjc023_0251"
    INDEX 01 01:51:40
  TRACK 103 AUDIO
    TITLE "0:"
    INDEX 01 01:52:48
  TRACK 104 AUDIO
    TITLE "19:cjc023_0252"
    INDEX 01 01:53:00
  TRACK 105 AUDIO
    TITLE "0:"
    INDEX 01 01:55:05
  TRACK 106 AUDIO
    TITLE "18:cjc023_0253"
    INDEX 01 01:56:02
  TRACK 107 AUDIO
    TITLE "0:"
    INDEX 01 01:57:25
  TRACK 108 AUDIO
    TITLE "19:cjc023_0254"
    INDEX 01 01:57:49
  TRACK 109 AUDIO
    TITLE "0:"
    INDEX 01 02:00:12
  TRACK 110 AUDIO
    TITLE "18:cjc023_0255"
    INDEX 01 02:01:07
  TRACK 111 AUDIO
    TITLE "0:"
    INDEX 01 02:02:20
  TRACK 112 AUDIO
    TITLE "19:cjc023_0256"
    INDEX 01 02:02:42
  TRACK 113 AUDIO
    TITLE "0:"
    INDEX 01 02:05:23
  TRACK 114 AUDIO
    TITLE "18:cjc023_0257"
    INDEX 01 02:06:20
  TRACK 115 AUDIO
    TITLE "0:"
    INDEX 01 02:07:51
  TRACK 116 AUDIO
    TITLE "19:cjc023_0258"
    INDEX 01 02:07:71
  TRACK 117 AUDIO
    TITLE "0:"
    INDEX 01 02:09:66
  TRACK 118 AUDIO
    TITLE "18:cjc023_0259"
    INDEX 01 02:10:61
  TRACK 119 AUDIO
    TITLE "0:"
    INDEX 01 02:12:07
  TRACK 120 AUDIO
    TITLE "19:cjc023_0260"
    INDEX 01 02:12:29
  TRACK 121 AUDIO
    TITLE "0:"
    INDEX 01 02:15:03
  TRACK 122 AUDIO
    TITLE "18:cjc023_0261"
    INDEX 01 02:16:01
  TRACK 123 AUDIO
    TITLE "0:"
    INDEX 01 02:17:18
  TRACK 124 AUDIO
    TITLE "19:cjc023_0262"
    INDEX 01 02:17:34
  TRACK 125 AUDIO
    TITLE "0:"
    INDEX 01 02:19:39
  TRACK 126 AUDIO
    TITLE "18:cjc023_0263"
    INDEX 01 02:20:32
  TRACK 127 AUDIO
    TITLE "0:"
    INDEX 01 02:21:49
  TRACK 128 AUDIO
    TITLE "19:cjc023_0264"
    INDEX 01 02:21:71
  TRACK 129 AUDIO
    TITLE "0:"
    INDEX 01 02:24:46
  TRACK 130 AUDIO
    TITLE "18:cjc023_0265"
    INDEX 01 02:25:43
  TRACK 131 AUDIO
    TITLE "0:"
    INDEX 01 02:26:52
  TRACK 132 AUDIO
    TITLE "19:cjc023_0266"
    INDEX 01 02:27:01
  TRACK 133 AUDIO
    TITLE "0:"
    INDEX 01 02:29:72
  TRACK 134 AUDIO
    TITLE "18:cjc023_0267"
    INDEX 01 02:30:68
  TRACK 135 AUDIO
    TITLE "0:"
    INDEX 01 02:32:27
  TRACK 136 AUDIO
    TITLE "19:cjc023_0268"
    INDEX 01 02:32:47
  TRACK 137 AUDIO
    TITLE "0:"
    INDEX 01 02:34:52
  TRACK 138 AUDIO
    TITLE "18:cjc023_0269"
    INDEX 01 02:35:55
  TRACK 139 AUDIO
    TITLE "0:"
    INDEX 01 02:36:60
  TRACK 140 AUDIO
    TITLE "19:cjc023_0270"
    INDEX 01 02:37:07
  TRACK 141 AUDIO
    TITLE "0:"
    INDEX 01 02:38:57
  TRACK 142 AUDIO
    TITLE "18:cjc023_0271"
    INDEX 01 02:39:55
  TRACK 143 AUDIO
    TITLE "0:"
    INDEX 01 02:41:03
  TRACK 144 AUDIO
    TITLE "19:cjc023_0272"
    INDEX 01 02:41:22
  TRACK 145 AUDIO
    TITLE "0:"
    INDEX 01 02:43:04
  TRACK 146 AUDIO
    TITLE "18:cjc023_0273"
    INDEX 01 02:44:05
  TRACK 147 AUDIO
    TITLE "0:"
    INDEX 01 02:45:07
  TRACK 148 AUDIO
    TITLE "19:cjc023_0274"
    INDEX 01 02:45:32
  TRACK 149 AUDIO
    TITLE "0:"
    INDEX 01 02:47:05
  TRACK 150 AUDIO
    TITLE "18:cjc023_0275"
    INDEX 01 02:48:03
  TRACK 151 AUDIO
    TITLE "0:"
    INDEX 01 02:49:36
  TRACK 152 AUDIO
    TITLE "19:cjc023_0276"
    INDEX 01 02:49:53
  TRACK 153 AUDIO
    TITLE "0:"
    INDEX 01 02:53:53
  TRACK 154 AUDIO
    TITLE "18:cjc023_0277"
    INDEX 01 02:54:51
  TRACK 155 AUDIO
    TITLE "0:"
    INDEX 01 02:55:66
  TRACK 156 AUDIO
    TITLE "19:cjc023_0278"
    INDEX 01 02:56:16
  TRACK 157 AUDIO
    TITLE "0:"
    INDEX 01 02:58:19
  TRACK 158 AUDIO
    TITLE "18:cjc023_0279"
    INDEX 01 02:59:15
  TRACK 159 AUDIO
    TITLE "0:"
    INDEX 01 03:00:51
  TRACK 160 AUDIO
    TITLE "19:cjc023_0280"
    INDEX 01 03:01:02
  TRACK 161 AUDIO
    TITLE "0:"
    INDEX 01 03:03:08
  TRACK 162 AUDIO
    TITLE "18:cjc023_0281"
    INDEX 01 03:04:06
  TRACK 163 AUDIO
    TITLE "0:"
    INDEX 01 03:05:13
  TRACK 164 AUDIO
    TITLE "19:cjc023_0282"
    INDEX 01 03:05:41
  TRACK 165 AUDIO
    TITLE "0:"
    INDEX 01 03:08:02
  TRACK 166 AUDIO
    TITLE "18:cjc023_0283"
    INDEX 01 03:08:74
  TRACK 167 AUDIO
    TITLE "0:"
    INDEX 01 03:10:08
  TRACK 168 AUDIO
    TITLE "19:cjc023_0284"
    INDEX 01 03:10:34
  TRACK 169 AUDIO
    TITLE "0:"
    INDEX 01 03:13:21
  TRACK 170 AUDIO
    TITLE "18:cjc023_0285"
    INDEX 01 03:14:16
  TRACK 171 AUDIO
    TITLE "0:"
    INDEX 01 03:15:45
  TRACK 172 AUDIO
    TITLE "19:cjc023_0286"
    INDEX 01 03:15:66
  TRACK 173 AUDIO
    TITLE "0:"
    INDEX 01 03:18:12
  TRACK 174 AUDIO
    TITLE "18:cjc023_0287"
    INDEX 01 03:19:07
  TRACK 175 AUDIO
    TITLE "0:"
    INDEX 01 03:20:32
  TRACK 176 AUDIO
    TITLE "19:cjc023_0288"
    INDEX 01 03:20:56
  TRACK 177 AUDIO
    TITLE "0:"
    INDEX 01 03:24:12
  TRACK 178 AUDIO
    TITLE "18:cjc023_0289"
    INDEX 01 03:25:10
  TRACK 179 AUDIO
    TITLE "0:"
    INDEX 01 03:26:37
  TRACK 180 AUDIO
    TITLE "19:cjc023_0290"
    INDEX 01 03:26:58
  TRACK 181 AUDIO
    TITLE "0:"
    INDEX 01 03:29:10
  TRACK 182 AUDIO
    TITLE "18:cjc023_0291"
    INDEX 01 03:30:07
  TRACK 183 AUDIO
    TITLE "0:"
    INDEX 01 03:31:34
  TRACK 184 AUDIO
    TITLE "19:cjc023_0292"
    INDEX 01 03:31:56
  TRACK 185 AUDIO
    TITLE "0:"
    INDEX 01 03:33:74
  TRACK 186 AUDIO
    TITLE "18:cjc023_0293"
    INDEX 01 03:34:70
  TRACK 187 AUDIO
    TITLE "0:"
    INDEX 01 03:36:12
  TRACK 188 AUDIO
    TITLE "19:cjc023_0294"
    INDEX 01 03:36:33
  TRACK 189 AUDIO
    TITLE "0:"
    INDEX 01 03:38:62
  TRACK 190 AUDIO
    TITLE "18:cjc023_0295"
    INDEX 01 03:39:59
  TRACK 191 AUDIO
    TITLE "0:"
    INDEX 01 03:41:09
  TRACK 192 AUDIO
    TITLE "19:cjc023_0296"
    INDEX 01 03:41:31
  TRACK 193 AUDIO
    TITLE "0:"
    INDEX 01 03:44:00
  TRACK 194 AUDIO
    TITLE "18:cjc023_0297"
    INDEX 01 03:44:70
  TRACK 195 AUDIO
    TITLE "0:"
    INDEX 01 03:45:64
  TRACK 196 AUDIO
    TITLE "19:cjc023_0298"
    INDEX 01 03:46:18
  TRACK 197 AUDIO
    TITLE "0:"
    INDEX 01 03:48:40
  TRACK 198 AUDIO
    TITLE "18:cjc023_0299"
    INDEX 01 03:49:40
  TRACK 199 AUDIO
    TITLE "0:"
    INDEX 01 03:50:55
  TRACK 200 AUDIO
    TITLE "19:cjc023_0300"
    INDEX 01 03:51:03
  TRACK 201 AUDIO
    TITLE "0:"
    INDEX 01 03:52:62
  TRACK 202 AUDIO
    TITLE "18:cjc023_0301"
    INDEX 01 03:53:55
  TRACK 203 AUDIO
    TITLE "0:"
    INDEX 01 03:54:72
  TRACK 204 AUDIO
    TITLE "19:cjc023_0302"
    INDEX 01 03:55:29
  TRACK 205 AUDIO
    TITLE "0:"
    INDEX 01 03:57:14
  TRACK 206 AUDIO
    TITLE "18:cjc023_0303"
    INDEX 01 03:58:17
  TRACK 207 AUDIO
    TITLE "0:"
    INDEX 01 03:59:34
  TRACK 208 AUDIO
    TITLE "19:cjc023_0304"
    INDEX 01 03:59:56
  TRACK 209 AUDIO
    TITLE "0:"
    INDEX 01 04:02:13
  TRACK 210 AUDIO
    TITLE "18:cjc023_0305"
    INDEX 01 04:03:09
  TRACK 211 AUDIO
    TITLE "0:"
    INDEX 01 04:04:08
  TRACK 212 AUDIO
    TITLE "19:cjc023_0306"
    INDEX 01 04:04:28
  TRACK 213 AUDIO
    TITLE "0:"
    INDEX 01 04:06:01
  TRACK 214 AUDIO
    TITLE "18:cjc023_0307"
    INDEX 01 04:07:01
  TRACK 215 AUDIO
    TITLE "0:"
    INDEX 01 04:07:73
  TRACK 216 AUDIO
    TITLE "19:cjc023_0308"
    INDEX 01 04:08:20
  TRACK 217 AUDIO
    TITLE "0:"
    INDEX 01 04:10:05
  TRACK 218 AUDIO
    TITLE "18:cjc023_0309"
    INDEX 01 04:11:00
  TRACK 219 AUDIO
    TITLE "0:"
    INDEX 01 04:12:12
  TRACK 220 AUDIO
    TITLE "19:cjc023_0310"
    INDEX 01 04:12:33
  TRACK 221 AUDIO
    TITLE "0:"
    INDEX 01 04:14:63
  TRACK 222 AUDIO
    TITLE "18:cjc023_0311"
    INDEX 01 04:15:59
  TRACK 223 AUDIO
    TITLE "0:"
    INDEX 01 04:17:09
  TRACK 224 AUDIO
    TITLE "19:cjc023_0312"
    INDEX 01 04:17:30
  TRACK 225 AUDIO
    TITLE "0:"
    INDEX 01 04:20:05
  TRACK 226 AUDIO
    TITLE "18:cjc023_0313"
    INDEX 01 04:21:03
  TRACK 227 AUDIO
    TITLE "0:"
    INDEX 01 04:22:08
  TRACK 228 AUDIO
    TITLE "19:cjc023_0314"
    INDEX 01 04:22:29
  TRACK 229 AUDIO
    TITLE "0:"
    INDEX 01 04:24:19
  TRACK 230 AUDIO
    TITLE "18:cjc023_0315"
    INDEX 01 04:25:18
  TRACK 231 AUDIO
    TITLE "0:"
    INDEX 01 04:26:37
  TRACK 232 AUDIO
    TITLE "19:cjc023_0316"
    INDEX 01 04:26:57
  TRACK 233 AUDIO
    TITLE "0:"
    INDEX 01 04:29:08
  TRACK 234 AUDIO
    TITLE "18:cjc023_0317"
    INDEX 01 04:30:02
  TRACK 235 AUDIO
    TITLE "0:"
    INDEX 01 04:31:03
  TRACK 236 AUDIO
    TITLE "19:cjc023_0318"
    INDEX 01 04:31:25
  TRACK 237 AUDIO
    TITLE "0:"
    INDEX 01 04:32:71
  TRACK 238 AUDIO
    TITLE "18:cjc023_0319"
    INDEX 01 04:33:70
  TRACK 239 AUDIO
    TITLE "0:"
    INDEX 01 04:35:11
  TRACK 240 AUDIO
    TITLE "19:cjc023_0320"
    INDEX 01 04:35:30
  TRACK 241 AUDIO
    TITLE "0:"
    INDEX 01 04:37:09
  TRACK 242 AUDIO
    TITLE "18:cjc023_0321"
    INDEX 01 04:38:05
  TRACK 243 AUDIO
    TITLE "0:"
    INDEX 01 04:39:10
  TRACK 244 AUDIO
    TITLE "19:cjc023_0322"
    INDEX 01 04:39:36
  TRACK 245 AUDIO
    TITLE "0:"
    INDEX 01 04:41:35
  TRACK 246 AUDIO
    TITLE "18:cjc023_0323"
    INDEX 01 04:42:32
  TRACK 247 AUDIO
    TITLE "0:"
    INDEX 01 04:43:55
  TRACK 248 AUDIO
    TITLE "19:cjc023_0324"
    INDEX 01 04:44:00
  TRACK 249 AUDIO
    TITLE "0:"
    INDEX 01 04:45:74
  TRACK 250 AUDIO
    TITLE "18:cjc023_0325"
    INDEX 01 04:46:71
  TRACK 251 AUDIO
    TITLE "0:"
    INDEX 01 04:48:11
  TRACK 252 AUDIO
    TITLE "19:cjc023_0326"
    INDEX 01 04:48:33
  TRACK 253 AUDIO
    TITLE "0:"
    INDEX 01 04:50:28
  TRACK 254 AUDIO
    TITLE "18:cjc023_0327"
    INDEX 01 04:51:25
  TRACK 255 AUDIO
    TITLE "0:"
    INDEX 01 04:52:48
  TRACK 256 AUDIO
    TITLE "19:cjc023_0328"
    INDEX 01 04:52:70
  TRACK 257 AUDIO
    TITLE "0:"
    INDEX 01 04:55:13
  TRACK 258 AUDIO
    TITLE "18:cjc023_0329"
    INDEX 01 04:56:13
  TRACK 259 AUDIO
    TITLE "0:"
    INDEX 01 04:57:22
  TRACK 260 AUDIO
    TITLE "19:cjc023_0330"
    INDEX 01 04:57:44
  TRACK 261 AUDIO
    TITLE "0:"
    INDEX 01 04:59:31
  TRACK 262 AUDIO
    TITLE "18:cjc023_0331"
    INDEX 01 05:00:28
  TRACK 263 AUDIO
    TITLE "0:"
    INDEX 01 05:01:57
  TRACK 264 AUDIO
    TITLE "19:cjc023_0332"
    INDEX 01 05:02:04
  TRACK 265 AUDIO
    TITLE "0:"
    INDEX 01 05:04:08
  TRACK 266 AUDIO
    TITLE "18:cjc023_0333"
    INDEX 01 05:05:06
  TRACK 267 AUDIO
    TITLE "0:"
    INDEX 01 05:06:19
  TRACK 268 AUDIO
    TITLE "19:cjc023_0334"
    INDEX 01 05:06:41
  TRACK 269 AUDIO
    TITLE "0:"
    INDEX 01 05:08:28
  TRACK 270 AUDIO
    TITLE "18:cjc023_0335"
    INDEX 01 05:09:23
  TRACK 271 AUDIO
    TITLE "0:"
    INDEX 01 05:10:52
  TRACK 272 AUDIO
    TITLE "19:cjc023_0336"
    INDEX 01 05:11:01
  TRACK 273 AUDIO
    TITLE "0:"
    INDEX 01 05:13:68
  TRACK 274 AUDIO
    TITLE "18:cjc023_0337"
    INDEX 01 05:14:66
  TRACK 275 AUDIO
    TITLE "0:"
    INDEX 01 05:16:13
  TRACK 276 AUDIO
    TITLE "19:cjc023_0338"
    INDEX 01 05:16:35
  TRACK 277 AUDIO
    TITLE "0:"
    INDEX 01 05:19:02
  TRACK 278 AUDIO
    TITLE "18:cjc023_0339"
    INDEX 01 05:20:00
  TRACK 279 AUDIO
    TITLE "0:"
    INDEX 01 05:21:11
  TRACK 280 AUDIO
    TITLE "19:cjc023_0340"
    INDEX 01 05:21:30
  TRACK 281 AUDIO
    TITLE "0:"
    INDEX 01 05:23:06
  TRACK 282 AUDIO
    TITLE "18:cjc023_0341"
    INDEX 01 05:24:03
  TRACK 283 AUDIO
    TITLE "0:"
    INDEX 01 05:25:28
  TRACK 284 AUDIO
    TITLE "19:cjc023_0342"
    INDEX 01 05:25:50
  TRACK 285 AUDIO
    TITLE "0:"
    INDEX 01 05:29:10
  TRACK 286 AUDIO
    TITLE "18:cjc023_0343"
    INDEX 01 05:30:08
  TRACK 287 AUDIO
    TITLE "0:"
    INDEX 01 05:31:31
  TRACK 288 AUDIO
    TITLE "19:cjc023_0344"
    INDEX 01 05:31:52
  TRACK 289 AUDIO
    TITLE "0:"
    INDEX 01 05:34:56
  TRACK 290 AUDIO
    TITLE "18:cjc023_0345"
    INDEX 01 05:35:52
  TRACK 291 AUDIO
    TITLE "0:"
    INDEX 01 05:36:61
  TRACK 292 AUDIO
    TITLE "19:cjc023_0346"
    INDEX 01 05:37:08
  TRACK 293 AUDIO
    TITLE "0:"
    INDEX 01 05:39:15
  TRACK 294 AUDIO
    TITLE "18:cjc023_0347"
    INDEX 01 05:40:10
  TRACK 295 AUDIO
    TITLE "0:"
    INDEX 01 05:41:19
  TRACK 296 AUDIO
    TITLE "19:cjc023_0348"
    INDEX 01 05:41:51
  TRACK 297 AUDIO
    TITLE "0:"
    INDEX 01 05:44:25
  TRACK 298 AUDIO
    TITLE "18:cjc023_0349"
    INDEX 01 05:45:21
  TRACK 299 AUDIO
    TITLE "0:"
    INDEX 01 05:46:46
  TRACK 300 AUDIO
    TITLE "19:cjc023_0350"
    INDEX 01 05:46:73
  TRACK 301 AUDIO
    TITLE "0:"
    INDEX 01 05:49:05
  TRACK 302 AUDIO
    TITLE "18:cjc023_0351"
    INDEX 01 05:49:74
  TRACK 303 AUDIO
    TITLE "0:"
    INDEX 01 05:51:16
  TRACK 304 AUDIO
    TITLE "19:cjc023_0352"
    INDEX 01 05:51:37
  TRACK 305 AUDIO
    TITLE "0:"
    INDEX 01 05:53:22
  TRACK 306 AUDIO
    TITLE "18:cjc023_0353"
    INDEX 01 05:54:18
  TRACK 307 AUDIO
    TITLE "0:"
    INDEX 01 05:55:15
  TRACK 308 AUDIO
    TITLE "19:cjc023_0354"
    INDEX 01 05:55:41
  TRACK 309 AUDIO
    TITLE "0:"
    INDEX 01 05:56:72
  TRACK 310 AUDIO
    TITLE "18:cjc023_0355"
    INDEX 01 05:57:67
  TRACK 311 AUDIO
    TITLE "0:"
    INDEX 01 05:59:09
  TRACK 312 AUDIO
    TITLE "19:cjc023_0356"
    INDEX 01 05:59:31
  TRACK 313 AUDIO
    TITLE "0:"
    INDEX 01 06:01:42
  TRACK 314 AUDIO
    TITLE "18:cjc023_0357"
    INDEX 01 06:02:35
  TRACK 315 AUDIO
    TITLE "0:"
    INDEX 01 06:03:68
  TRACK 316 AUDIO
    TITLE "19:cjc023_0358"
    INDEX 01 06:04:14
  TRACK 317 AUDIO
    TITLE "0:"
    INDEX 01 06:06:06
  TRACK 318 AUDIO
    TITLE "18:cjc023_0359"
    INDEX 01 06:07:03
  TRACK 319 AUDIO
    TITLE "0:"
    INDEX 01 06:08:18
  TRACK 320 AUDIO
    TITLE "19:cjc023_0360"
    INDEX 01 06:08:38
  TRACK 321 AUDIO
    TITLE "0:"
    INDEX 01 06:11:32
  TRACK 322 AUDIO
    TITLE "18:cjc023_0361"
    INDEX 01 06:12:30
  TRACK 323 AUDIO
    TITLE "0:"
    INDEX 01 06:13:37
  TRACK 324 AUDIO
    TITLE "19:cjc023_0362"
    INDEX 01 06:13:60
  TRACK 325 AUDIO
    TITLE "0:"
    INDEX 01 06:15:44
  TRACK 326 AUDIO
    TITLE "18:cjc023_0363"
    INDEX 01 06:16:41
  TRACK 327 AUDIO
    TITLE "0:"
    INDEX 01 06:17:74
  TRACK 328 AUDIO
    TITLE "19:cjc023_0364"
    INDEX 01 06:18:20
  TRACK 329 AUDIO
    TITLE "0:"
    INDEX 01 06:20:23
  TRACK 330 AUDIO
    TITLE "18:cjc023_0365"
    INDEX 01 06:21:21
  TRACK 331 AUDIO
    TITLE "0:"
    INDEX 01 06:22:30
  TRACK 332 AUDIO
    TITLE "19:cjc023_0366"
    INDEX 01 06:22:50
  TRACK 333 AUDIO
    TITLE "0:"
    INDEX 01 06:24:37
  TRACK 334 AUDIO
    TITLE "18:cjc023_0367"
    INDEX 01 06:25:34
  TRACK 335 AUDIO
    TITLE "0:"
    INDEX 01 06:26:49
  TRACK 336 AUDIO
    TITLE "19:cjc023_0368"
    INDEX 01 06:26:71
  TRACK 337 AUDIO
    TITLE "0:"
    INDEX 01 06:28:62
  TRACK 338 AUDIO
    TITLE "18:cjc023_0369"
    INDEX 01 06:29:63
  TRACK 339 AUDIO
    TITLE "0:"
    INDEX 01 06:31:02
  TRACK 340 AUDIO
    TITLE "19:cjc023_0370"
    INDEX 01 06:31:25
  TRACK 341 AUDIO
    TITLE "0:"
    INDEX 01 06:33:59
  TRACK 342 AUDIO
    TITLE "18:cjc023_0371"
    INDEX 01 06:34:55
  TRACK 343 AUDIO
    TITLE "0:"
    INDEX 01 06:35:66
  TRACK 344 AUDIO
    TITLE "19:cjc023_0372"
    INDEX 01 06:36:11
  TRACK 345 AUDIO
    TITLE "0:"
    INDEX 01 06:38:62
  TRACK 346 AUDIO
    TITLE "18:cjc023_0373"
    INDEX 01 06:39:58
  TRACK 347 AUDIO
    TITLE "0:"
    INDEX 01 06:41:25
  TRACK 348 AUDIO
    TITLE "19:cjc023_0374"
    INDEX 01 06:41:47
  TRACK 349 AUDIO
    TITLE "0:"
    INDEX 01 06:44:49
  TRACK 350 AUDIO
    TITLE "18:cjc023_0375"
    INDEX 01 06:45:47
  TRACK 351 AUDIO
    TITLE "0:"
    INDEX 01 06:46:58
  TRACK 352 AUDIO
    TITLE "19:cjc023_0376"
    INDEX 01 06:47:06
  TRACK 353 AUDIO
    TITLE "0:"
    INDEX 01 06:49:29
  TRACK 354 AUDIO
    TITLE "18:cjc023_0377"
    INDEX 01 06:50:28
  TRACK 355 AUDIO
    TITLE "0:"
    INDEX 01 06:51:47
  TRACK 356 AUDIO
    TITLE "19:cjc023_0378"
    INDEX 01 06:51:67
  TRACK 357 AUDIO
    TITLE "0:"
    INDEX 01 06:54:52
  TRACK 358 AUDIO
    TITLE "18:cjc023_0379"
    INDEX 01 06:55:51
  TRACK 359 AUDIO
    TITLE "0:"
    INDEX 01 06:56:68
  TRACK 360 AUDIO
    TITLE "19:cjc023_0380"
    INDEX 01 06:57:15
  TRACK 361 AUDIO
    TITLE "0:"
    INDEX 01 06:58:69
  TRACK 362 AUDIO
    TITLE "18:cjc023_0381"
    INDEX 01 06:59:68
  TRACK 363 AUDIO
    TITLE "0:"
    INDEX 01 07:00:74
  TRACK 364 AUDIO
    TITLE "19:cjc023_0382"
    INDEX 01 07:01:22
  TRACK 365 AUDIO
    TITLE "0:"
    INDEX 01 07:02:69
  TRACK 366 AUDIO
    TITLE "18:cjc023_0383"
    INDEX 01 07:03:64
  TRACK 367 AUDIO
    TITLE "0:"
    INDEX 01 07:05:04
  TRACK 368 AUDIO
    TITLE "19:cjc023_0384"
    INDEX 01 07:05:30
  TRACK 369 AUDIO
    TITLE "0:"
    INDEX 01 07:07:58
  TRACK 370 AUDIO
    TITLE "18:cjc023_0385"
    INDEX 01 07:08:54
  TRACK 371 AUDIO
    TITLE "0:"
    INDEX 01 07:09:67
  TRACK 372 AUDIO
    TITLE "19:cjc023_0386"
    INDEX 01 07:10:13
  TRACK 373 AUDIO
    TITLE "0:"
    INDEX 01 07:12:69
  TRACK 374 AUDIO
    TITLE "18:cjc023_0387"
    INDEX 01 07:13:69
  TRACK 375 AUDIO
    TITLE "0:"
    INDEX 01 07:14:64
  TRACK 376 AUDIO
    TITLE "19:cjc023_0388"
    INDEX 01 07:15:11
  TRACK 377 AUDIO
    TITLE "0:"
    INDEX 01 07:17:58
  TRACK 378 AUDIO
    TITLE "18:cjc023_0389"
    INDEX 01 07:18:52
  TRACK 379 AUDIO
    TITLE "0:"
    INDEX 01 07:19:69
  TRACK 380 AUDIO
    TITLE "19:cjc023_0390"
    INDEX 01 07:20:12
  TRACK 381 AUDIO
    TITLE "0:"
    INDEX 01 07:21:74
  TRACK 382 AUDIO
    TITLE "18:cjc023_0391"
    INDEX 01 07:22:69
  TRACK 383 AUDIO
    TITLE "0:"
    INDEX 01 07:24:19
  TRACK 384 AUDIO
    TITLE "19:cjc023_0392"
    INDEX 01 07:24:41
  TRACK 385 AUDIO
    TITLE "0:"
    INDEX 01 07:26:30
  TRACK 386 AUDIO
    TITLE "18:cjc023_0393"
    INDEX 01 07:27:26
  TRACK 387 AUDIO
    TITLE "0:"
    INDEX 01 07:28:35
  TRACK 388 AUDIO
    TITLE "19:cjc023_0394"
    INDEX 01 07:28:56
  TRACK 389 AUDIO
    TITLE "0:"
    INDEX 01 07:30:36
  TRACK 390 AUDIO
    TITLE "18:cjc023_0395"
    INDEX 01 07:31:31
  TRACK 391 AUDIO
    TITLE "0:"
    INDEX 01 07:32:36
  TRACK 392 AUDIO
    TITLE "19:cjc023_0396"
    INDEX 01 07:32:60
  TRACK 393 AUDIO
    TITLE "0:"
    INDEX 01 07:34:63
  TRACK 394 AUDIO
    TITLE "18:cjc023_0397"
    INDEX 01 07:35:60
  TRACK 395 AUDIO
    TITLE "0:"
    INDEX 01 07:37:12
  TRACK 396 AUDIO
    TITLE "19:cjc023_0398"
    INDEX 01 07:37:34
  TRACK 397 AUDIO
    TITLE "0:"
    INDEX 01 07:40:07
  TRACK 398 AUDIO
    TITLE "18:cjc023_0399"
    INDEX 01 07:41:02
  TRACK 399 AUDIO
    TITLE "0:"
    INDEX 01 07:42:15
  TRACK 400 AUDIO
    TITLE "19:cjc023_0400"
    INDEX 01 07:42:37
  TRACK 401 AUDIO
    TITLE "0:"
    INDEX 01 07:44:73
